<svg width="256" height="256" viewBox="0 0 256 256" fill="none" xmlns="http://www.w3.org/2000/svg">
<path d="M248.994 129.889C247.837 110.523 223.997 84.8891 173.262 71.2822C127.337 58.9601 91.3022 63.382 71.9423 65.7549L69.6909 66.0327C53.5663 67.989 22.631 76.3406 20.9699 93.9469C20.8021 95.5848 20.4837 97.6973 20.0497 100.146L19.8702 101.124C18.7127 107.421 16.8317 115.668 14.8002 123.696L14.4587 124.384L14.6092 124.46C12.734 131.827 10.743 138.929 9.05301 144.184L8.99513 144.283C8.31796 146.478 7.51996 148.634 6.60481 150.742C4.70644 154.793 4.49229 158.845 5.96237 162.688C8.18485 168.516 14.1057 173.522 23.5512 177.574C26.8097 178.968 32.2328 181.116 39.479 183.402H39.5311C63.9775 190.081 89.2034 193.479 114.546 193.507C122.012 193.507 128.737 193.206 134.565 192.766C157.519 191.03 171.925 186.834 172.816 186.568C189.867 182.412 207.902 175.687 218.771 169.43C238.478 158.075 249.781 143.293 248.994 129.889ZM246.1 130.062C246.182 131.562 246.1 133.066 245.857 134.548L229.993 133.894C230.115 133.075 230.177 132.25 230.178 131.422C230.178 130.925 230.178 130.433 230.138 129.941L246.048 129.454C246.071 129.657 246.095 129.86 246.106 130.062H246.1ZM34.8489 166.965L40.6366 159.082C42.4925 159.946 44.4024 160.751 46.3664 161.495L40.7118 169.656C38.7266 168.84 36.7472 167.943 34.8431 166.965H34.8489ZM38.9871 172.122L34.4206 178.679C31.9492 177.811 29.7904 177.001 28.002 176.283L33.0836 169.338C35.0128 170.356 36.9787 171.284 38.9813 172.122H38.9871ZM9.90381 150.475L10.1527 150.771L8.85044 152.97C8.97777 152.646 9.1051 152.328 9.25558 152.003C9.45236 151.564 9.6723 151.054 9.89802 150.475H9.90381ZM16.6465 128.123L17.3526 128.835L15.5758 132.175C15.923 130.849 16.2819 129.483 16.6407 128.123H16.6465ZM226.659 99.642C228.743 101.332 230.672 103.051 232.447 104.799L219.714 108.428C218.189 106.898 216.575 105.458 214.881 104.116L226.59 99.5725L226.659 99.642ZM227.29 131.422C227.286 132.21 227.217 132.996 227.082 133.772L212.138 133.153C212.205 132.576 212.24 131.997 212.242 131.417C212.242 131.104 212.242 130.797 212.213 130.485L227.261 130.022C227.279 130.49 227.29 130.954 227.29 131.422ZM118.701 170.426C121.983 170.35 125.259 170.194 128.54 169.974L130.022 178.338C126.846 178.503 123.683 178.588 120.53 178.592H118.597L118.701 170.426ZM135.271 90.48L131.22 98.7738C128.697 98.4381 126.162 98.1488 123.598 97.9115L126.312 89.5482C129.42 89.8029 132.401 90.127 135.271 90.48ZM127.238 86.7238L129.808 78.8409C133.367 79.2866 136.828 79.8075 140.226 80.3805L136.626 87.7309C133.645 87.3373 130.497 86.9958 127.238 86.7238ZM209.348 131.422C209.347 131.963 209.309 132.502 209.233 133.037L193.397 132.377C193.501 131.94 193.58 131.498 193.635 131.052L209.32 130.572C209.337 130.867 209.348 131.15 209.348 131.422ZM24.7898 131.746L29.2695 124.182C30.3229 124.917 31.3936 125.635 32.4759 126.346L27.3711 133.813C26.4914 133.141 25.631 132.453 24.7898 131.746ZM25.7332 136.209L21.2767 142.737C20.6284 142.159 19.9918 141.528 19.3551 140.908L23.2966 134.264C24.0953 134.935 24.9075 135.584 25.7332 136.209ZM32.4585 113.127L28.4071 120.003C27.6721 119.465 26.9486 118.921 26.2252 118.371L30.0451 111.2C30.8167 111.814 31.6212 112.456 32.4585 113.127ZM203.451 118.55L189.931 121.288C189.607 120.923 189.259 120.565 188.895 120.206L201.581 116.594C202.253 117.26 202.878 117.908 203.451 118.55ZM38.5414 117.462L34.0965 123.956C32.9389 123.215 31.845 122.463 30.7396 121.687L34.791 114.869C35.9659 115.72 37.216 116.588 38.5414 117.462ZM176.144 114.852C176.578 115.084 176.995 115.315 177.412 115.547L164.8 120.443C164.297 120.2 163.776 119.957 163.232 119.714L174.518 114.024C175.074 114.296 175.612 114.574 176.144 114.852ZM95.7645 133.454C85.2209 132.309 74.8304 130.037 64.7713 126.676C73.6207 125.328 90.7697 123.03 104.886 123.03C115.099 123.146 125.284 124.114 135.335 125.924C147.431 128.1 151.373 130.201 152.021 130.965C151.942 131.094 151.843 131.21 151.726 131.307C148.878 133.859 133.894 137.216 95.7645 133.454ZM159.846 125.467L164.621 123.615C164.829 123.719 165.026 123.829 165.2 123.933L159.846 125.467ZM169.025 122.851C168.736 122.654 168.447 122.457 168.117 122.272L180.589 117.433C181.382 117.937 182.129 118.435 182.835 118.938L169.025 122.851ZM160.998 121.919L151.738 125.513L159.84 121.462L160.998 121.919ZM148.844 123.73L154.956 119.679L156.113 120.078L148.844 123.73ZM142.581 124.425L140.845 124.031L148.514 117.717C149.509 117.989 150.482 118.261 151.408 118.545L142.581 124.425ZM137.164 123.267H137.06L135.949 123.065L142.199 116.177C143.156 116.386 144.096 116.602 145.018 116.826L137.164 123.267ZM132.569 122.469L130.566 122.162L135.549 114.841C136.707 115.037 137.806 115.251 138.918 115.471L132.569 122.469ZM127.36 121.711C126.052 121.537 124.74 121.379 123.424 121.236L127.18 113.561C128.697 113.77 130.24 113.994 131.81 114.233L132.389 114.32L127.36 121.711ZM120.362 120.918C118.956 120.779 117.561 120.663 116.178 120.559L118.788 112.566C120.559 112.74 122.342 112.936 124.153 113.145L120.362 120.918ZM113.197 120.368C111.548 120.275 109.921 120.206 108.341 120.159L109.84 111.941C111.86 112.022 113.845 112.143 115.831 112.306L113.197 120.368ZM105.413 120.119H104.88C103.3 120.119 101.674 120.148 100.036 120.2L100.458 111.86C102.687 111.814 104.828 111.814 106.912 111.86L105.413 120.119ZM97.1304 120.31C95.3941 120.397 93.5942 120.501 91.8231 120.628L91.4758 112.248C93.5903 112.109 95.6179 112.005 97.5587 111.935L97.1304 120.31ZM88.935 120.854C86.7183 121.033 84.5306 121.242 82.4007 121.467L81.4515 113.087C83.9518 112.838 86.3248 112.624 88.5878 112.45L88.935 120.854ZM79.5242 121.774C77.2554 122.035 75.0792 122.301 73.042 122.567L71.6703 114.308C73.8812 113.98 76.1828 113.677 78.575 113.399L79.5242 121.774ZM70.1771 122.932C67.9719 123.233 65.9868 123.511 64.3025 123.783L62.6067 115.894C64.5745 115.508 66.6427 115.122 68.8112 114.736L70.1771 122.932ZM61.4376 124.274L59.0762 124.668C57.4962 124.089 55.9624 123.441 54.4808 122.81L53.4332 118.064C55.3952 117.549 57.5135 117.04 59.7997 116.542L61.4376 124.274ZM51.1934 121.329C50.0358 120.75 48.8783 120.212 47.8191 119.644C48.7104 119.372 49.6538 119.1 50.6377 118.822L51.1934 121.329ZM40.978 119.013C42.1356 119.725 43.2931 120.437 44.5548 121.143L44.9368 121.357L40.1967 127.724C38.9697 127.006 37.7485 126.265 36.5447 125.513L40.978 119.013ZM47.5182 122.735C49.0288 123.511 50.6319 124.263 52.3046 125.004L47.2924 131.584C45.749 130.813 44.2288 130.006 42.7317 129.165L47.5182 122.735ZM55.0422 126.173C56.5759 126.798 58.1618 127.411 59.7823 128.002L54.6255 135.04C53.0512 134.351 51.477 133.639 49.9201 132.887L55.0422 126.173ZM62.6357 129.003C64.3025 129.582 65.9983 130.12 67.7173 130.635L62.5083 138.159C60.7875 137.534 59.0762 136.874 57.3746 136.18L62.6357 129.003ZM70.6459 131.492C72.5751 132.032 74.5043 132.537 76.4336 133.008L71.2246 141.007C69.2529 140.44 67.2871 139.828 65.327 139.172L70.6459 131.492ZM79.4374 133.703C81.3647 134.131 83.292 134.525 85.2251 134.86L80.4734 143.264C78.3705 142.832 76.2734 142.342 74.1822 141.794L79.4374 133.703ZM88.2347 135.387C89.971 135.665 91.7421 135.908 93.4437 136.11L89.4386 144.792C87.4418 144.537 85.4393 144.213 83.4425 143.872L88.2347 135.387ZM96.4938 136.429L100.638 136.805L97.9754 145.521C96.1465 145.436 94.3138 145.301 92.4771 145.116L96.4938 136.429ZM103.59 137.042C105.378 137.181 107.172 137.303 108.966 137.418L107.6 145.77C105.467 145.747 103.26 145.703 100.979 145.637L103.59 137.042ZM111.872 137.58C113.301 137.661 114.725 137.725 116.137 137.783L116.056 145.753C114.27 145.776 112.424 145.776 110.517 145.753L111.872 137.58ZM119.031 137.881C120.316 137.916 121.585 137.943 122.839 137.962L124.176 145.515C122.498 145.589 120.762 145.649 118.967 145.695L119.031 137.881ZM125.785 137.986C127.047 137.986 128.29 137.974 129.513 137.951L132.198 145.012C130.566 145.145 128.864 145.267 127.088 145.365L125.785 137.986ZM132.574 137.87L134.34 137.789L138.391 144.398C137.361 144.52 136.29 144.636 135.19 144.746L132.574 137.87ZM137.61 137.586L139.462 137.424L144.844 143.478C143.783 143.659 142.682 143.829 141.54 143.987L137.61 137.586ZM142.963 137.007C143.206 136.973 143.455 136.944 143.693 136.903L150.447 142.378C149.712 142.546 148.954 142.708 148.172 142.87L142.963 137.007ZM147.385 136.174L148.19 135.971L155.986 140.897C155.337 141.099 154.66 141.302 153.948 141.476L147.385 136.174ZM153.485 135.896L160.431 139.282C160.118 139.415 159.794 139.548 159.464 139.676L153.485 135.896ZM162.798 137.216L163.869 137.615L163.753 137.679L162.798 137.216ZM176.688 126.925L188.796 124.471C189.056 124.821 189.297 125.184 189.52 125.559L176.688 126.925ZM173.112 124.697L185.636 121.132C185.96 121.41 186.267 121.711 186.556 121.971L173.112 124.697ZM186.313 117.908C185.542 117.295 184.733 116.696 183.888 116.114L195.626 111.559C196.876 112.479 198.022 113.388 199.064 114.273L186.313 117.908ZM180.873 114.181C179.847 113.567 178.789 112.971 177.701 112.392L188.588 106.911C189.965 107.727 191.308 108.567 192.587 109.417L192.79 109.556L180.873 114.181ZM174.506 110.778C173.291 110.199 172.047 109.62 170.785 109.088L180.508 102.605C182.245 103.433 183.935 104.295 185.578 105.192L174.506 110.778ZM171.219 112.433L159.696 118.221C159.412 118.111 159.117 118.001 158.851 117.896L157.994 117.59L167.903 110.986C169.025 111.48 170.125 111.97 171.202 112.456L171.219 112.433ZM154.481 116.473C153.416 116.137 152.311 115.807 151.182 115.489L160.095 108.15C161.615 108.659 163.11 109.19 164.58 109.742L154.481 116.473ZM147.756 114.563C146.648 114.281 145.527 114.005 144.393 113.735L151.72 105.632C153.422 106.076 155.121 106.558 156.819 107.079L147.756 114.563ZM141.169 113.012C139.888 112.745 138.609 112.491 137.332 112.248L143.149 103.711C144.368 103.954 145.595 104.208 146.83 104.475C147.408 104.602 147.987 104.729 148.566 104.868L141.169 113.012ZM134.224 111.704C133.576 111.594 132.933 111.495 132.297 111.397C131.018 111.206 129.773 111.021 128.54 110.853L132.91 101.934C135.289 102.281 137.668 102.675 140.069 103.091L134.224 111.704ZM125.542 110.442C123.58 110.187 121.659 109.961 119.755 109.77L122.648 100.736C125.074 100.95 127.47 101.21 129.854 101.517L125.542 110.442ZM116.803 109.498C114.685 109.319 112.566 109.18 110.436 109.088L112.074 100.076C114.702 100.169 117.283 100.308 119.772 100.493L116.803 109.498ZM107.485 108.989C105.274 108.937 103.017 108.931 100.655 108.989L101.066 99.9661C103.821 99.9661 106.483 99.9661 109.076 100.018L107.485 108.989ZM97.7497 109.053C95.724 109.122 93.6019 109.23 91.3832 109.377L91.0013 100.174C93.4745 100.082 95.8726 100.014 98.1954 99.9719L97.7497 109.053ZM88.4894 109.579C86.1743 109.761 83.7261 109.979 81.1448 110.233L80.0509 100.776C81.5673 100.649 83.1068 100.539 84.6811 100.458C85.8386 100.394 86.9556 100.342 88.0669 100.296L88.4894 109.579ZM78.2625 110.546C75.8239 110.824 73.4722 111.134 71.2073 111.478L69.633 102.003C72.0233 101.633 74.5468 101.309 77.157 101.043L78.2625 110.546ZM68.3539 111.935C66.1372 112.306 64.0305 112.699 62.0164 113.093L60.0196 103.832C62.1321 103.346 64.3893 102.889 66.7739 102.466L68.3539 111.935ZM59.1804 113.706C56.9174 114.204 54.7991 114.719 52.8139 115.234L50.8403 106.333C52.756 105.754 54.8917 105.123 57.2068 104.538L59.1804 113.706ZM50.03 115.986C47.9407 116.565 46.0597 117.144 44.387 117.688L44.2249 117.59L42.5465 109.313C43.8198 108.787 45.232 108.237 46.7889 107.681L48.0969 107.224L50.03 115.986ZM40.8449 115.489C39.1703 114.401 37.6134 113.326 36.1742 112.265C37.1061 111.773 38.3273 111.165 39.8321 110.482L40.8449 115.489ZM26.9023 122.498L22.5615 129.819C21.9828 129.316 21.4561 128.806 20.9178 128.285L24.8361 120.952C25.5191 121.473 26.2078 121.988 26.9023 122.498ZM34.9125 127.903C36.0701 128.638 37.2681 129.362 38.4604 130.062L32.8 137.673C31.7409 136.984 30.7106 136.267 29.6978 135.543L34.9125 127.903ZM40.9954 131.509C42.4828 132.343 43.9934 133.147 45.5156 133.923L39.5948 141.696C38.1131 140.897 36.6604 140.081 35.254 139.224L40.9954 131.509ZM48.149 135.236C49.7156 136.008 51.2956 136.739 52.8892 137.43L47.1014 145.336C45.4269 144.607 43.7928 143.835 42.1992 143.021L48.149 135.236ZM55.621 138.599C57.338 139.309 59.0743 139.986 60.8299 140.631L55.3489 148.542C53.4814 147.894 51.6544 147.209 49.868 146.488L55.621 138.599ZM63.6138 141.638C65.5932 142.321 67.5784 142.955 69.5693 143.542L64.4819 151.355C62.3231 150.776 60.2222 150.163 58.1618 149.497L63.6138 141.638ZM72.4864 144.369C74.6394 144.948 76.7943 145.465 78.9512 145.921L74.6104 153.688C72.1796 153.213 69.8047 152.688 67.4858 152.113L72.4864 144.369ZM81.9377 146.522C84.0136 146.908 86.0894 147.246 88.1653 147.535L84.5595 155.337C82.1866 155.013 79.858 154.648 77.5738 154.243L81.9377 146.522ZM91.198 147.9C93.1716 148.114 95.1453 148.282 97.1073 148.386L94.6475 156.448C92.2514 156.24 89.8958 156.003 87.5807 155.719L91.198 147.9ZM100.076 148.508C102.501 148.583 104.834 148.629 107.103 148.658L105.708 157.12C102.947 157.016 100.244 156.871 97.605 156.68L100.076 148.508ZM110.031 148.681H111.478C113.022 148.681 114.534 148.67 116.016 148.647L115.946 157.264C113.458 157.264 111.015 157.264 108.648 157.212L110.031 148.681ZM118.91 148.6C120.901 148.554 122.822 148.485 124.697 148.403L126.208 156.923C123.725 157.068 121.265 157.16 118.84 157.218L118.91 148.6ZM127.591 148.253C129.571 148.137 131.457 147.998 133.269 147.842L136.423 156.107C133.987 156.367 131.544 156.582 129.113 156.755L127.591 148.253ZM136.273 147.558C137.585 147.427 138.852 147.283 140.075 147.124L144.902 154.99C143.073 155.275 141.237 155.53 139.392 155.754L136.273 147.558ZM143.218 146.69C144.584 146.486 145.89 146.268 147.136 146.036L153.676 153.392C151.809 153.778 149.916 154.143 147.999 154.486L143.218 146.69ZM150.43 145.377C151.437 145.151 152.403 144.925 153.323 144.688L161.6 151.419C160.06 151.859 158.48 152.27 156.883 152.657L150.43 145.377ZM156.732 143.727C157.595 143.455 158.411 143.183 159.186 142.905L168.898 149.04C167.621 149.522 166.309 149.976 164.962 150.4L156.732 143.727ZM162.52 141.568C162.989 141.36 163.44 141.146 163.869 140.926L175.085 146.395C174.159 146.847 173.198 147.281 172.22 147.703L162.52 141.568ZM166.913 139.189L167.359 138.888L180.092 143.611C179.513 143.987 178.882 144.358 178.251 144.717L166.913 139.189ZM177.707 139.641L183.61 141.059C183.391 141.232 183.176 141.418 182.951 141.586L177.707 139.641ZM181.243 137.517L186.753 138.275C186.609 138.431 186.458 138.582 186.302 138.738L181.243 137.517ZM183.078 134.849L189.207 135.103C189.097 135.283 188.981 135.462 188.866 135.642L183.078 134.849ZM175.195 131.625L190.741 131.15C190.676 131.524 190.589 131.893 190.481 132.256L175.195 131.625ZM193.641 128.152C193.638 128.112 193.638 128.071 193.641 128.031L208.498 126.451C208.648 126.873 208.781 127.284 208.891 127.689L193.641 128.152ZM192.691 125.218C192.46 124.744 192.205 124.282 191.927 123.835L205.546 121.08C206.134 121.918 206.67 122.791 207.149 123.696L192.691 125.218ZM208.608 120.455L223.308 117.48C224.136 118.839 224.85 120.263 225.444 121.739L210.28 123.348C209.768 122.353 209.194 121.39 208.561 120.466L208.608 120.455ZM206.663 117.908C206.057 117.163 205.411 116.428 204.724 115.703L218.858 111.651C219.801 112.677 220.689 113.751 221.52 114.869L206.663 117.908ZM202.351 113.37C201.234 112.34 200.036 111.339 198.797 110.361L211.762 105.326C213.423 106.573 215.015 107.91 216.531 109.331L202.351 113.37ZM196.054 108.318C194.634 107.311 193.162 106.346 191.638 105.424L203.005 99.6941C205.019 100.852 207.016 102.009 208.938 103.34L196.054 108.318ZM188.686 103.641C186.921 102.64 185.109 101.679 183.275 100.747L192.564 94.5546C194.949 95.5674 197.42 96.7076 199.886 97.9751L188.686 103.641ZM180.236 99.3179C178.182 98.3687 176.11 97.489 174.055 96.6787L181.608 90.4627C183.923 91.2151 186.527 92.1411 189.34 93.2523L180.236 99.3179ZM177.406 101.205L167.567 107.78C165.97 107.154 164.361 106.558 162.757 105.997L171.491 98.8086C173.476 99.5378 175.456 100.342 177.406 101.205ZM159.499 104.909C157.606 104.33 155.743 103.751 153.925 103.248L161.004 95.4401C163.417 96.0652 165.865 96.8002 168.325 97.6452L159.499 104.909ZM150.765 102.426C149.608 102.144 148.498 101.886 147.437 101.65C146.592 101.465 145.747 101.291 144.908 101.118L150.43 93.0208C152.976 93.5456 155.436 94.0935 157.809 94.6645L150.765 102.426ZM141.823 100.504C139.271 100.018 136.742 99.5841 134.218 99.2079L138.27 90.8852C141.418 91.3366 144.437 91.8421 147.327 92.4016L141.823 100.504ZM120.623 97.651C117.978 97.4484 115.287 97.2922 112.52 97.188L114.019 88.9694C117.249 89.0312 120.355 89.1604 123.337 89.3572L120.623 97.651ZM109.597 97.0722C106.889 97.0722 104.128 97.0201 101.234 97.0722L101.639 89.0968C104.909 88.981 108.058 88.9289 111.102 88.9463L109.597 97.0722ZM98.3401 97.0722C95.9324 97.1185 93.4456 97.1899 90.8797 97.2864L90.573 89.7276C93.3742 89.4961 96.0983 89.3186 98.7452 89.1952L98.3401 97.0722ZM87.9916 97.4021L84.5711 97.5642C82.9216 97.651 81.3242 97.7668 79.7499 97.8999L78.957 90.9257C81.9435 90.5398 84.8528 90.2234 87.6849 89.9765L87.9916 97.4021ZM76.8677 98.1661C74.1764 98.4381 71.6008 98.7449 69.1584 99.15L68.0298 92.4999C69.5346 92.2395 71.0799 91.9906 72.66 91.7591L76.0458 91.2903L76.8677 98.1661ZM66.3051 99.6246C63.8684 100.053 61.5707 100.522 59.4177 101.014L58.0402 94.5951C60.2974 94.0395 62.6858 93.5167 65.2054 93.0266L66.3051 99.6246ZM56.5817 101.702C54.2666 102.293 52.1445 102.891 50.2152 103.497L48.8378 97.2459C50.8345 96.5803 52.9528 95.9378 55.2042 95.3244L56.5817 101.702ZM47.4487 104.394C46.8699 104.585 46.3201 104.776 45.7934 104.972C44.3986 105.476 43.1195 105.968 41.9446 106.443L40.7118 100.377C42.3787 99.6478 44.1709 98.932 46.0886 98.2298L47.4487 104.394ZM39.2244 107.589C37.1871 108.491 35.5955 109.284 34.4611 109.904L33.7376 103.815C35.0456 103.078 36.4694 102.339 38.0089 101.598L39.2244 107.589ZM31.3878 108.532C30.6007 107.878 29.8598 107.241 29.1827 106.634C29.7615 106.24 30.375 105.841 31.0174 105.435L31.3878 108.532ZM27.7763 109.279L23.8869 116.559C23.3487 116.125 22.8104 115.686 22.2779 115.24L26.04 107.716C26.5801 108.214 27.1589 108.734 27.7763 109.279ZM22.521 119.152L18.7822 126.161C18.3481 125.716 17.9256 125.258 17.5031 124.807L20.9757 117.896C21.4677 118.319 21.9828 118.741 22.521 119.152ZM19.5056 130.93C20.0207 131.411 20.5358 131.885 21.0625 132.354L17.26 138.773C16.8491 138.339 16.4323 137.905 16.0214 137.459L19.5056 130.93ZM17.8388 143.472C18.4175 144.051 18.9963 144.63 19.6272 145.151L14.997 151.928C14.5571 151.454 14.1173 150.967 13.6832 150.47L17.8388 143.472ZM21.8149 147.084C22.631 147.778 23.4528 148.456 24.2921 149.115L19.1236 156.061C18.4233 155.418 17.7346 154.747 17.0516 154.064L21.8149 147.084ZM23.4586 144.676L28.0599 137.934C29.0496 138.64 30.045 139.328 31.0695 140L26.0226 146.789C25.1544 146.106 24.2998 145.402 23.4586 144.676ZM33.5177 141.557C34.9125 142.407 36.3479 143.229 37.8122 144.022L32.3023 151.263C30.9421 150.4 29.6283 149.48 28.3261 148.537L33.5177 141.557ZM40.4108 145.388C42.014 146.198 43.6635 146.98 45.342 147.703L39.6932 155.418C38.0147 154.585 36.3749 153.701 34.7736 152.767L40.4108 145.388ZM48.0738 148.89C49.8795 149.63 51.7239 150.337 53.6068 151.008L48.0333 159.047C46.104 158.318 44.2114 157.536 42.3555 156.703L48.0738 148.89ZM56.4544 151.98C58.5303 152.663 60.6524 153.304 62.8209 153.902L57.4962 162.074C56.6319 161.843 55.7811 161.605 54.9438 161.362C53.549 160.951 52.1888 160.511 50.8461 160.054L56.4544 151.98ZM65.7784 154.677C68.1591 155.279 70.5938 155.831 73.0825 156.333L68.4523 164.482C65.6626 163.99 63.0003 163.44 60.4479 162.826L65.7784 154.677ZM76.0805 156.911C78.4342 157.34 80.8419 157.726 83.3036 158.069L79.6168 166.033C76.804 165.728 74.1031 165.375 71.514 164.974L76.0805 156.911ZM78.3377 168.811L74.4252 177.278C71.2941 176.977 68.2208 176.607 65.2054 176.121L69.9803 167.682C72.6581 168.111 75.4458 168.496 78.3435 168.84L78.3377 168.811ZM81.3763 169.135C84.3049 169.424 87.3627 169.666 90.5498 169.859L88.009 178.193C84.4399 178.042 80.9326 177.83 77.4869 177.556L81.3763 169.135ZM82.6669 166.351L86.3074 158.48C88.7498 158.785 91.2424 159.049 93.7851 159.273L91.418 167.017C88.3794 166.837 85.4682 166.617 82.6727 166.351H82.6669ZM96.7369 159.516C99.5227 159.724 102.361 159.884 105.251 159.996L104.012 167.52C100.667 167.451 97.4719 167.347 94.3986 167.196L96.7369 159.516ZM108.168 160.095C110.483 160.158 112.717 160.193 114.916 160.193H115.912L115.836 167.59H113.556C111.291 167.59 109.084 167.574 106.935 167.543L108.168 160.095ZM118.805 160.158C121.526 160.112 124.159 160.019 126.729 159.881L128.014 167.104C124.927 167.308 121.84 167.449 118.753 167.526L118.805 160.158ZM131.417 169.76C134.712 169.486 137.982 169.145 141.227 168.736L144.376 177.006C140.556 177.504 136.73 177.89 132.899 178.164L131.417 169.76ZM130.908 166.866L129.634 159.678C132.354 159.499 134.988 159.261 137.529 158.983L140.174 165.929C137.118 166.334 134.021 166.646 130.913 166.895L130.908 166.866ZM140.492 158.636C142.595 158.37 144.632 158.073 146.604 157.745L150.655 164.366C148.17 164.802 145.662 165.188 143.131 165.524L140.492 158.636ZM149.677 157.264C151.838 156.879 153.918 156.441 155.916 155.951L161.484 162.219C158.941 162.817 156.354 163.365 153.723 163.862L149.677 157.264ZM159.111 155.135C160.934 154.654 162.682 154.156 164.349 153.63L171.578 159.487C169.338 160.164 167.034 160.807 164.685 161.403L159.111 155.135ZM167.602 152.542C169.095 152.015 170.496 151.471 171.867 150.915L180.526 156.419L180.375 156.477C178.581 157.16 176.733 157.814 174.831 158.439L167.602 152.542ZM181.457 159.18C182.187 158.902 182.904 158.601 183.61 158.335L192.518 163.967C190.174 164.991 187.766 165.969 185.312 166.901L177.539 160.598C178.851 160.143 180.147 159.67 181.429 159.18H181.457ZM186.869 156.969C188.605 156.2 190.295 155.401 191.887 154.591L201.824 159.435C199.868 160.496 197.815 161.528 195.666 162.531L186.869 156.969ZM183.894 155.094L175.068 149.515C176.173 149 177.232 148.473 178.234 147.94L188.594 152.987C187.073 153.705 185.497 154.407 183.865 155.094H183.894ZM181.278 146.204C182.013 145.753 182.713 145.295 183.379 144.838L195.394 149.301C194.266 149.995 193.079 150.672 191.823 151.344L181.278 146.204ZM186.134 142.778C186.481 142.488 186.811 142.199 187.135 141.915L201.078 145.278C200.237 145.965 199.34 146.648 198.387 147.327L186.134 142.778ZM189.514 139.514C189.74 139.259 189.954 139.004 190.162 138.744L205.54 140.856C204.952 141.578 204.328 142.269 203.671 142.928L189.514 139.514ZM191.968 136.041C192.124 135.763 192.263 135.462 192.402 135.207L208.503 135.873C208.195 136.672 207.826 137.446 207.398 138.188L191.968 136.041ZM211.542 135.995L226.347 136.608C225.847 137.966 225.213 139.271 224.454 140.503L210.477 138.588C210.887 137.76 211.233 136.903 211.513 136.024L211.542 135.995ZM211.814 127.579C211.698 127.093 211.559 126.607 211.403 126.121L226.387 124.529C226.619 125.374 226.812 126.237 226.966 127.116L211.814 127.579ZM229.293 124.222L244.578 122.596C245.037 123.884 245.403 125.203 245.672 126.543L229.872 127.024C229.718 126.097 229.515 125.179 229.264 124.274L229.293 124.222ZM228.407 121.404C227.821 119.832 227.107 118.31 226.272 116.855L240.209 114.03C241.438 115.872 242.522 117.807 243.45 119.818L228.407 121.404ZM224.622 114.239C223.794 113.031 222.898 111.871 221.937 110.766L234.751 107.114C236.066 108.549 237.274 109.99 238.374 111.437L224.622 114.239ZM212.144 102.067C210.182 100.661 208.139 99.341 206.067 98.1256L216.872 92.6736C219.338 94.2363 221.694 95.8395 223.91 97.5005L212.144 102.067ZM203.028 96.4124C200.476 95.035 197.912 93.7906 195.412 92.6794L205.193 86.1624C208.256 87.6711 211.179 89.2511 213.961 90.9025L203.028 96.4124ZM192.24 91.3192C189.381 90.1617 186.666 89.1315 184.241 88.2981L193.259 80.8666C196.345 82.0743 199.316 83.3476 202.172 84.6865L192.24 91.3192ZM180.989 87.2331C179.484 86.7585 178.153 86.3592 177.041 86.0466C175.074 85.491 173.073 84.9373 171.04 84.3856L178.789 75.8661C182.71 77.0506 186.502 78.3258 190.168 79.6917L180.989 87.2331ZM176.254 88.8363C176.874 89.01 177.562 89.2067 178.309 89.4151L170.93 95.4922C168.279 94.5314 165.68 93.7038 163.191 93.015L168.858 86.7759C171.369 87.4666 173.835 88.1514 176.254 88.8305V88.8363ZM160.049 92.2163C157.537 91.6028 154.932 91.0009 152.224 90.4279L156.755 83.7605C159.804 84.4705 162.786 85.2094 165.703 85.9772L160.049 92.2163ZM149.145 89.7971C146.118 89.2183 142.963 88.6395 139.653 88.1592L143.206 80.9072C146.81 81.567 150.323 82.2808 153.746 83.0486L149.145 89.7971ZM144.514 78.2217L149.017 69.0308C153.119 69.7021 157.328 70.5105 161.646 71.4558L155.476 80.4673C151.917 79.6628 148.265 78.8988 144.503 78.1985L144.514 78.2217ZM141.557 77.6892C138.044 77.1104 134.438 76.5316 130.74 76.0628L133.686 67.034C137.673 67.4218 141.788 67.9253 146.025 68.562L141.557 77.6892ZM127.805 75.7098C124.178 75.2931 120.451 74.9612 116.623 74.7143L118.204 66.0327C122.212 66.1523 126.387 66.3935 130.728 66.7562L127.805 75.7098ZM126.891 78.5226L124.269 86.4923C121.155 86.2839 117.914 86.1431 114.546 86.0698L116.091 77.5676C119.78 77.7953 123.376 78.1059 126.879 78.4995L126.891 78.5226ZM111.623 86.0466C108.463 86.0235 105.183 86.0717 101.784 86.1913L102.241 77.1683C105.98 77.1683 109.63 77.2532 113.191 77.423L111.623 86.0466ZM98.8899 86.3129C96.1523 86.446 93.3453 86.6196 90.4514 86.8569L90.0636 77.5213C93.2237 77.3419 96.3202 77.2377 99.3587 77.1914L98.8899 86.3129ZM89.9247 74.6043L89.6006 66.7793C92.8244 66.5189 96.2623 66.2932 99.897 66.1369L99.4976 74.2686C96.3607 74.3149 93.1697 74.4268 89.9247 74.6043ZM87.0309 74.7953C84.1023 74.9979 81.1274 75.2526 78.0947 75.5825L77.2033 75.6808L76.3468 68.1337C79.4606 67.7575 82.9274 67.3755 86.7068 67.0282L87.0309 74.7953ZM78.4072 78.459C81.3763 78.1348 84.2817 77.8802 87.1466 77.6834L87.5344 87.0826C84.6406 87.3489 81.6637 87.6711 78.604 88.0492L77.5332 78.5516C77.8284 78.5516 78.112 78.4879 78.413 78.459H78.4072ZM75.768 88.3907C74.6104 88.5469 73.4529 88.7032 72.2954 88.8768C70.6748 89.1083 69.1121 89.3572 67.5842 89.6234L66.0331 80.3168C68.7649 79.7785 71.6471 79.2982 74.7146 78.893L75.768 88.3907ZM64.7366 90.127C62.1784 90.6209 59.7457 91.1514 57.4383 91.7186L55.511 82.9097C57.9129 82.2036 60.4595 81.538 63.1739 80.9361L64.7366 90.127ZM54.8975 79.9869L53.2364 72.2835C55.893 71.5195 58.6306 70.8423 61.4087 70.2751L62.6993 78.0133C59.9328 78.6615 57.3283 79.3271 54.8859 80.0332L54.8975 79.9869ZM52.102 80.8666C49.839 81.5901 47.7092 82.3483 45.7355 83.1238L44.0455 75.4841C46.0886 74.6564 48.2358 73.8751 50.4641 73.169L52.102 80.8666ZM52.7271 83.7605L54.6023 92.4884C52.3451 93.0942 50.2229 93.7327 48.2358 94.4041L46.3664 86.0756C48.3458 85.2711 50.4583 84.4955 52.7271 83.7605ZM45.4577 95.3359C43.5594 96.0227 41.7806 96.725 40.1215 97.4427L38.5356 89.6234C40.1099 88.8074 41.8115 87.9855 43.652 87.1752L45.4577 95.3359ZM37.4186 98.6754C35.9717 99.3584 34.6212 100.039 33.3672 100.719L32.4701 93.1945C33.5119 92.5115 34.6463 91.817 35.8733 91.1109L37.4186 98.6754ZM32.0823 89.9071L31.2026 82.6435C32.0244 81.9837 32.8868 81.3644 33.7666 80.774L35.254 88.0376C34.1254 88.6627 33.072 89.2878 32.0823 89.9071ZM29.3795 91.6897C28.6849 92.17 28.0367 92.6446 27.429 93.1019L27.0644 86.7354C27.5413 86.1306 28.0494 85.5511 28.5865 84.9991L29.3795 91.6897ZM29.7846 95.0581L30.6238 102.281C29.6978 102.837 28.8335 103.383 28.0309 103.919L27.62 96.725C28.3087 96.1867 28.9975 95.6311 29.7846 95.0581ZM25.0792 102.692C24.3094 101.893 23.7075 101.234 23.2908 100.753C23.6612 100.337 24.1937 99.7867 24.8766 99.1327L25.0792 102.692ZM23.858 105.586L20.4722 112.352C21.1435 109.377 21.7513 106.529 22.2664 103.925C22.7178 104.44 23.2503 104.996 23.858 105.609V105.586ZM12.9771 143.148L14.5861 140.133C14.9623 140.538 15.3443 140.943 15.7436 141.337L11.7327 148.103C11.5128 147.83 11.2986 147.524 11.0787 147.269C11.2813 146.69 11.4839 146.071 11.6922 145.423L12.9771 143.148ZM8.15592 159.782L12.1379 153.068C12.5314 153.502 12.925 153.937 13.2954 154.359L8.57263 161.316C8.40176 160.822 8.26257 160.317 8.15592 159.805V159.782ZM15.3848 156.477C16.0446 157.126 16.7102 157.758 17.3815 158.376L11.5244 166.259C10.9811 165.645 10.4821 164.993 10.0311 164.308L15.3848 156.477ZM19.5577 160.297C20.7577 161.304 21.9731 162.269 23.204 163.191L17.2426 171.016C15.9701 170.199 14.7591 169.29 13.6195 168.296L19.5577 160.297ZM21.294 157.953L26.5724 150.863C27.8631 151.801 29.1711 152.715 30.5139 153.578L24.9519 160.876C23.7307 159.962 22.521 159.001 21.3056 157.976L21.294 157.953ZM33.0026 155.059C34.6116 156.016 36.2611 156.917 37.9511 157.762L32.256 165.541C30.5775 164.603 28.9357 163.592 27.3306 162.508L33.0026 155.059ZM49.1445 162.525C50.7709 163.104 52.4319 163.637 54.1335 164.134C54.7123 164.302 55.2911 164.464 55.8698 164.621L50.412 172.995C48.0506 172.324 45.7413 171.577 43.4668 170.738L49.1445 162.525ZM58.7926 165.419C61.4029 166.068 64.1173 166.652 66.9591 167.156L62.1553 175.658C59.1457 175.131 56.2055 174.5 53.3232 173.788L58.7926 165.419ZM60.6331 178.366L57.0563 184.698C53.9483 184.05 50.7998 183.35 47.6165 182.568L51.6448 176.364C54.5772 177.136 57.5772 177.795 60.6447 178.343L60.6331 178.366ZM63.6659 178.882C66.7527 179.372 69.907 179.777 73.1288 180.097L69.905 187.042C66.6716 186.521 63.3919 185.943 60.0659 185.306L63.6659 178.882ZM76.1847 180.381C79.7673 180.693 83.4136 180.913 87.1293 181.075L84.6984 189.039C80.8612 188.628 76.914 188.125 72.8799 187.523L76.1847 180.381ZM90.1157 181.197C93.9183 181.33 97.7845 181.405 101.691 181.451L100.262 190.254C96.2102 190.046 92.0025 189.745 87.6444 189.328L90.1157 181.197ZM90.9955 178.303L93.5189 170.026C96.7137 170.188 100.051 170.308 103.532 170.385L102.183 178.54C98.4095 178.5 94.6765 178.43 91.007 178.303H90.9955ZM106.443 170.437C108.758 170.472 111.123 170.489 113.539 170.489H115.784L115.703 178.592C112.126 178.592 108.59 178.592 105.1 178.592L106.443 170.437ZM118.597 181.486H120.513C123.827 181.486 127.161 181.392 130.514 181.202L132.077 190.04C127.95 190.312 123.395 190.515 118.499 190.584L118.597 181.486ZM133.414 180.994C137.419 180.71 141.435 180.3 145.435 179.761L148.693 188.373C144.578 188.952 140.012 189.438 134.965 189.826L133.414 180.994ZM148.375 179.345C151.847 178.824 155.32 178.187 158.729 177.504L163.799 185.763C160.593 186.44 156.507 187.21 151.645 187.934L148.375 179.345ZM147.322 176.578L144.179 168.319C146.922 167.933 149.623 167.499 152.282 167.017L157.103 174.882C153.873 175.546 150.613 176.119 147.322 176.601V176.578ZM155.337 166.444C158.166 165.888 160.94 165.279 163.66 164.615L170.067 171.821C166.803 172.72 163.49 173.53 160.13 174.251L155.337 166.444ZM166.815 163.81C169.355 163.139 171.838 162.421 174.246 161.652L182.117 168.018C179.193 169.052 176.206 170.017 173.158 170.912L166.815 163.81ZM184.756 170.177L193.588 177.336C190.012 178.61 186.18 179.86 182.14 181.046L175.288 173.331C178.494 172.376 181.683 171.323 184.745 170.194L184.756 170.177ZM187.888 168.985C190.463 167.978 192.987 166.918 195.412 165.801L205.992 172.492C203.196 173.707 200.105 174.958 196.731 176.202L187.888 168.985ZM198.537 164.354C200.798 163.255 202.949 162.132 204.99 160.986L217.249 166.959C215.113 168.18 212.387 169.581 209.146 171.068L198.537 164.354ZM207.994 159.226C209.8 158.127 211.505 157.012 213.11 155.881L226.509 160.853C224.454 162.398 222.336 163.845 220.206 165.182L207.994 159.226ZM204.875 157.704L194.995 152.901C196.334 152.129 197.599 151.357 198.792 150.585L209.788 154.637C208.229 155.682 206.588 156.707 204.863 157.71L204.875 157.704ZM201.639 148.531C202.681 147.74 203.646 146.933 204.533 146.112L216.988 149.115C215.657 150.273 214.216 151.465 212.647 152.623L201.639 148.531ZM206.923 143.71C207.606 142.947 208.244 142.145 208.833 141.308L222.591 143.195C221.631 144.438 220.595 145.621 219.489 146.737L206.923 143.71ZM225.884 143.646L241.268 145.764C240.055 147.607 238.715 149.363 237.257 151.02L222.788 147.547C223.9 146.317 224.93 145.016 225.872 143.652L225.884 143.646ZM227.545 140.955C228.285 139.617 228.89 138.21 229.351 136.753L245.221 137.413C244.64 139.374 243.852 141.267 242.871 143.061L227.545 140.955ZM175.687 74.9747L167.897 83.5348C164.835 82.7303 161.71 81.9316 158.498 81.1734L164.673 72.1156C167.254 72.6944 169.882 73.3658 172.515 74.0777C173.58 74.3613 174.628 74.6564 175.676 74.9574L175.687 74.9747ZM115.263 65.9459L113.706 74.5002C110.022 74.3304 106.25 74.2474 102.391 74.2513L102.808 66.0269C106.738 65.8996 110.899 65.8591 115.263 65.9459ZM70.0382 68.9034L72.2954 68.6314L73.4529 68.4867L74.3095 76.0107C71.2188 76.4217 68.2845 76.9078 65.5006 77.4519L64.2157 69.7484C66.172 69.4301 68.1108 69.1407 70.0382 68.9034ZM41.3253 76.6532L43.0037 84.2467C41.1864 85.0184 39.4925 85.8074 37.9221 86.6138L36.4115 79.1593C37.6675 78.4358 38.9292 77.7818 40.1388 77.203L41.3253 76.6532ZM24.4368 91.4639L24.6567 95.3359C24.2747 95.6716 23.9216 95.9899 23.5917 96.2909C23.7017 95.5385 23.7827 94.844 23.8464 94.2189C23.9401 93.2815 24.1381 92.3574 24.4368 91.4639ZM19.7429 172.521L25.5654 164.881C27.1859 165.981 28.8373 167.009 30.5196 167.966L25.2412 175.172L24.7146 174.946C23.0174 174.222 21.3581 173.413 19.7429 172.521ZM37.2681 179.669L41.7362 173.227C44.0166 174.095 46.3452 174.867 48.722 175.542L44.6706 181.775C43.2352 181.411 41.7767 181.035 40.353 180.618C39.2687 180.313 38.2405 179.997 37.2681 179.669ZM103.173 190.376L104.649 181.457C108.283 181.48 111.966 181.48 115.697 181.457L115.599 190.579C111.652 190.625 107.519 190.555 103.173 190.376ZM172.047 183.766H171.966C171.919 183.766 170.102 184.345 166.757 185.103L161.704 176.867C165.242 176.096 168.732 175.214 172.174 174.222L179.015 181.926C176.766 182.574 174.452 183.188 172.076 183.766H172.047ZM229.142 158.763L215.831 153.827C217.401 152.608 218.91 151.312 220.351 149.943L234.948 153.462C233.12 155.333 231.192 157.103 229.171 158.763H229.142Z" fill="#E9983D"/>
</svg>
