<svg width="64" height="64" viewBox="0 0 64 64" fill="none" xmlns="http://www.w3.org/2000/svg">
<path d="M62.2486 32.4721C61.9592 27.6307 55.9993 21.2223 43.3155 17.8205C31.8341 14.74 22.8256 15.8455 17.9856 16.4387L17.4227 16.5082C13.3916 16.9972 5.65775 19.0852 5.24248 23.4867C5.20052 23.8962 5.12094 24.4243 5.01242 25.0364L4.96756 25.2809C4.67818 26.8552 4.20792 28.917 3.70005 30.9239L3.61468 31.0961L3.6523 31.1149C3.1835 32.9569 2.68576 34.7322 2.26325 36.0461L2.24878 36.0707C2.07949 36.6195 1.87999 37.1586 1.6512 37.6854C1.17661 38.6983 1.12307 39.7111 1.49059 40.6719C2.04621 42.1289 3.52642 43.3805 5.88781 44.3934C6.70243 44.7421 8.0582 45.2789 9.86976 45.8504H9.88278C15.9944 47.5201 22.3009 48.3697 28.6364 48.3768C30.503 48.3768 32.1843 48.3015 33.6413 48.1916C39.3799 47.7575 42.9813 46.7085 43.2041 46.6419C47.4667 45.603 51.9754 43.9217 54.6927 42.3576C59.6195 39.5187 62.4454 35.8232 62.2486 32.4721ZM61.5251 32.5156C61.5454 32.8904 61.525 33.2664 61.4643 33.6369L57.4983 33.4734C57.5288 33.2689 57.5442 33.0624 57.5446 32.8556C57.5446 32.7311 57.5446 32.6082 57.5345 32.4852L61.5121 32.3636C61.5179 32.4143 61.5237 32.4649 61.5266 32.5156H61.5251ZM8.71221 41.7412L10.1591 39.7705C10.6231 39.9865 11.1006 40.1876 11.5916 40.3738L10.178 42.414C9.68166 42.21 9.18681 41.9857 8.71077 41.7412H8.71221ZM9.74677 43.0304L8.60514 44.6698C7.9873 44.4527 7.4476 44.2501 7.0005 44.0707L8.2709 42.3344C8.75321 42.5891 9.24468 42.8211 9.74532 43.0304H9.74677ZM2.47595 37.6189L2.53817 37.6927L2.21261 38.2425C2.24444 38.1615 2.27628 38.0819 2.3139 38.0009C2.36309 37.8909 2.41807 37.7636 2.4745 37.6189H2.47595ZM4.16162 32.0308L4.33815 32.2088L3.89394 33.0437C3.98076 32.7123 4.07047 32.3709 4.16018 32.0308H4.16162ZM56.6649 24.9105C57.1858 25.333 57.6681 25.7627 58.1118 26.1997L54.9286 27.1069C54.5472 26.7244 54.1438 26.3644 53.7204 26.029L56.6475 24.8931L56.6649 24.9105ZM56.8226 32.8556C56.8216 33.0525 56.8042 33.249 56.7705 33.443L53.0345 33.2882C53.0512 33.1441 53.0599 32.9992 53.0606 32.8541C53.0606 32.776 53.0606 32.6993 53.0533 32.6212L56.8154 32.5054C56.8197 32.6226 56.8226 32.7384 56.8226 32.8556ZM29.6753 42.6064C30.4957 42.5876 31.3147 42.5486 32.1351 42.4936L32.5055 44.5844C31.7116 44.6259 30.9206 44.6471 30.1325 44.648H29.6493L29.6753 42.6064ZM33.8179 22.62L32.805 24.6935C32.1742 24.6095 31.5404 24.5372 30.8994 24.4779L31.578 22.3871C32.355 22.4507 33.1002 22.5317 33.8179 22.62ZM31.8095 21.681L32.452 19.7102C33.3418 19.8216 34.2071 19.9519 35.0564 20.0951L34.1565 21.9327C33.4113 21.8343 32.6242 21.749 31.8095 21.681ZM52.3371 32.8556C52.3368 32.9907 52.3272 33.1255 52.3082 33.2593L48.3494 33.0943C48.3753 32.9851 48.3951 32.8744 48.4087 32.763L52.3299 32.6429C52.3342 32.7167 52.3371 32.7876 52.3371 32.8556ZM6.19745 32.9366L7.31737 31.0455C7.58072 31.2292 7.8484 31.4087 8.11897 31.5866L6.84278 33.4532C6.62285 33.2853 6.40774 33.1131 6.19745 32.9366ZM6.4333 34.0522L5.31917 35.6843C5.15711 35.5396 4.99795 35.3819 4.83879 35.2271L5.82414 33.566C6.02382 33.7339 6.22687 33.8959 6.4333 34.0522ZM8.11463 28.2818L7.10178 30.0008C6.91802 29.8662 6.73716 29.7302 6.55629 29.5928L7.51126 27.8C7.70419 27.9534 7.90531 28.114 8.11463 28.2818ZM50.8627 29.6376L47.4827 30.322C47.4016 30.2309 47.3148 30.1411 47.2237 30.0514L50.3953 29.1485C50.5632 29.3149 50.7194 29.477 50.8627 29.6376ZM9.63535 29.3656L8.52411 30.989C8.23473 30.8038 7.96126 30.6157 7.68489 30.4218L8.69774 28.7174C8.99147 28.9301 9.30401 29.1471 9.63535 29.3656ZM44.0361 28.713C44.1446 28.7709 44.2488 28.8288 44.353 28.8867L41.2001 30.1108C41.0742 30.05 40.944 29.9892 40.808 29.9284L43.6295 28.5061C43.7684 28.5741 43.903 28.6436 44.0361 28.713ZM23.9411 33.3635C21.3052 33.0773 18.7076 32.5093 16.1928 31.6691C18.4052 31.332 22.6924 30.7575 26.2215 30.7575C28.7746 30.7864 31.3209 31.0284 33.8338 31.481C36.8579 32.025 37.8432 32.5503 38.0053 32.7413C37.9856 32.7736 37.9606 32.8025 37.9315 32.8266C37.2196 33.4647 33.4735 34.304 23.9411 33.3635ZM39.9615 31.3667L41.1552 30.9037C41.2073 30.9297 41.2565 30.9572 41.2999 30.9833L39.9615 31.3667ZM42.2564 30.7127C42.184 30.6635 42.1117 30.6143 42.0292 30.568L45.1473 29.3584C45.3455 29.4842 45.5322 29.6087 45.7087 29.7346L42.2564 30.7127ZM40.2495 30.4797L37.9344 31.3783L39.9601 30.3654L40.2495 30.4797ZM37.2109 30.9326L38.7389 29.9198L39.0283 30.0196L37.2109 30.9326ZM35.6453 31.1062L35.2113 31.0079L37.1284 29.4293C37.3773 29.4973 37.6204 29.5653 37.8519 29.6362L35.6453 31.1062ZM34.291 30.8169H34.265L33.9872 30.7662L35.5498 29.0444C35.7891 29.0965 36.024 29.1505 36.2545 29.2064L34.291 30.8169ZM33.1422 30.6172L32.6415 30.5405L33.8873 28.7101C34.1767 28.7593 34.4516 28.8129 34.7294 28.8678L33.1422 30.6172ZM31.8399 30.4276C31.5129 30.3842 31.1849 30.3447 30.856 30.309L31.7951 28.3904C32.1742 28.4424 32.56 28.4984 32.9526 28.5582L33.0973 28.5799L31.8399 30.4276ZM30.0906 30.2294C29.739 30.1947 29.3903 30.1657 29.0445 30.1397L29.697 28.1415C30.1398 28.1849 30.5854 28.2341 31.0383 28.2862L30.0906 30.2294ZM28.2993 30.0919C27.8869 30.0688 27.4803 30.0514 27.0853 30.0399L27.4601 27.9852C27.965 28.0055 28.4613 28.0359 28.9576 28.0764L28.2993 30.0919ZM26.3532 30.0297H26.22C25.825 30.0297 25.4184 30.037 25.009 30.05L25.1146 27.965C25.6717 27.9534 26.207 27.9534 26.7279 27.965L26.3532 30.0297ZM24.2826 30.0775C23.8485 30.0992 23.3985 30.1252 22.9558 30.1571L22.869 28.0619C23.3976 28.0272 23.9045 28.0011 24.3897 27.9838L24.2826 30.0775ZM22.2338 30.2135C21.6796 30.2583 21.1326 30.3104 20.6002 30.3669L20.3629 28.2717C20.988 28.2095 21.5812 28.156 22.1469 28.1125L22.2338 30.2135ZM19.8811 30.4436C19.3139 30.5087 18.7698 30.5752 18.2605 30.6418L17.9176 28.577C18.4703 28.495 19.0457 28.4193 19.6438 28.3498L19.8811 30.4436ZM17.5443 30.7329C16.993 30.8082 16.4967 30.8776 16.0756 30.9456L15.6517 28.9735C16.1436 28.877 16.6607 28.7805 17.2028 28.6841L17.5443 30.7329ZM15.3594 31.0686L14.7691 31.167C14.374 31.0223 13.9906 30.8603 13.6202 30.7026L13.3583 29.5161C13.8488 29.3873 14.3784 29.26 14.9499 29.1355L15.3594 31.0686ZM12.7983 30.3321C12.509 30.1874 12.2196 30.0529 11.9548 29.9111C12.1776 29.8431 12.4135 29.7751 12.6594 29.7056L12.7983 30.3321ZM10.2445 29.7534C10.5339 29.9313 10.8233 30.1093 11.1387 30.2858L11.2342 30.3394L10.0492 31.931C9.74243 31.7516 9.43713 31.5664 9.13616 31.3783L10.2445 29.7534ZM11.8795 30.6837C12.2572 30.8776 12.658 31.0657 13.0761 31.2509L11.8231 32.8961C11.4373 32.7032 11.0572 32.5016 10.6829 32.2913L11.8795 30.6837ZM13.7605 31.5432C14.144 31.6995 14.5404 31.8529 14.9456 32.0004L13.6564 33.7599C13.2628 33.5877 12.8692 33.4098 12.48 33.2217L13.7605 31.5432ZM15.6589 32.2508C16.0756 32.3955 16.4996 32.53 16.9293 32.6588L15.6271 34.5398C15.1969 34.3835 14.7691 34.2186 14.3437 34.045L15.6589 32.2508ZM17.6615 32.8729C18.1438 33.008 18.6261 33.1344 19.1084 33.252L17.8062 35.2517C17.3132 35.1099 16.8218 34.957 16.3317 34.793L17.6615 32.8729ZM19.8593 33.4257C20.3412 33.5327 20.823 33.6311 21.3063 33.7151L20.1184 35.816C19.5926 35.708 19.0684 35.5855 18.5455 35.4485L19.8593 33.4257ZM22.0587 33.8467C22.4928 33.9162 22.9355 33.9769 23.3609 34.0276L22.3596 36.198C21.8605 36.1343 21.3598 36.0533 20.8606 35.9679L22.0587 33.8467ZM24.1234 34.1072L25.1594 34.2012L24.4939 36.3803C24.0366 36.3591 23.5784 36.3253 23.1193 36.279L24.1234 34.1072ZM25.8974 34.2605C26.3445 34.2953 26.793 34.3257 27.2416 34.3546L26.9001 36.4425C26.3667 36.4367 25.8149 36.4256 25.2448 36.4092L25.8974 34.2605ZM27.9679 34.3951C28.3253 34.4154 28.6813 34.4313 29.0343 34.4458L29.0141 36.4382C28.5674 36.444 28.1059 36.444 27.6294 36.4382L27.9679 34.3951ZM29.7578 34.4704C30.079 34.479 30.3964 34.4858 30.7099 34.4906L31.0441 36.3789C30.6245 36.3972 30.1904 36.4121 29.7419 36.4237L29.7578 34.4704ZM31.4464 34.4964C31.7618 34.4964 32.0724 34.4935 32.3782 34.4877L33.0496 36.253C32.6415 36.2862 32.2161 36.3166 31.7719 36.3412L31.4464 34.4964ZM33.1436 34.4675L33.5849 34.4472L34.5978 36.0996C34.3402 36.13 34.0725 36.1589 33.7976 36.1864L33.1436 34.4675ZM34.4024 34.3966L34.8654 34.356L36.2111 35.8695C35.9458 35.9149 35.6704 35.9573 35.3849 35.9969L34.4024 34.3966ZM35.7408 34.2519C35.8016 34.2432 35.8638 34.236 35.9231 34.2258L37.6117 35.5946C37.428 35.6366 37.2384 35.6771 37.0431 35.7176L35.7408 34.2519ZM36.8463 34.0435L37.0474 33.9929L38.9964 35.2242C38.8344 35.2748 38.6651 35.3255 38.4871 35.3689L36.8463 34.0435ZM38.3714 33.9741L40.1077 34.8205C40.0295 34.8538 39.9485 34.8871 39.866 34.9189L38.3714 33.9741ZM40.6995 34.304L40.9671 34.4038L40.9382 34.4197L40.6995 34.304ZM44.1721 31.7313L47.1991 31.1178C47.264 31.2053 47.3244 31.2961 47.3799 31.3898L44.1721 31.7313ZM43.2779 31.1742L46.409 30.2829C46.4901 30.3524 46.5668 30.4276 46.6391 30.4927L43.2779 31.1742ZM46.5783 29.477C46.3854 29.3236 46.1833 29.1741 45.9721 29.0285L48.9064 27.8897C49.219 28.1198 49.5055 28.347 49.7659 28.5683L46.5783 29.477ZM45.2182 28.5452C44.9616 28.3918 44.6973 28.2428 44.4253 28.0981L47.147 26.7278C47.4913 26.9319 47.827 27.1417 48.1468 27.3544L48.1974 27.3891L45.2182 28.5452ZM43.6266 27.6944C43.3227 27.5497 43.0117 27.405 42.6962 27.2719L45.1271 25.6513C45.5611 25.8582 45.9836 26.0738 46.3946 26.2981L43.6266 27.6944ZM42.8047 28.1082L39.9239 29.5551C39.853 29.5276 39.7792 29.5002 39.7127 29.4741L39.4985 29.3974L41.9757 27.7465C42.2564 27.8699 42.5313 27.9925 42.8004 28.114L42.8047 28.1082ZM38.6202 29.1182C38.354 29.0342 38.0776 28.9518 37.7955 28.8722L40.0238 27.0375C40.4038 27.1648 40.7776 27.2974 41.1451 27.4354L38.6202 29.1182ZM36.9389 28.6407C36.662 28.5703 36.3818 28.5013 36.0982 28.4338L37.93 26.4081C38.3554 26.519 38.7804 26.6396 39.2048 26.7698L36.9389 28.6407ZM35.2923 28.2529C34.972 28.1863 34.6523 28.1227 34.333 28.0619L35.7871 25.9277C36.092 25.9885 36.3987 26.0521 36.7074 26.1187C36.8521 26.1505 36.9968 26.1823 37.1415 26.2171L35.2923 28.2529ZM33.556 27.9259C33.3939 27.8984 33.2333 27.8738 33.0742 27.8492C32.7544 27.8015 32.4433 27.7552 32.1351 27.7132L33.2275 25.4835C33.8222 25.5703 34.4169 25.6687 35.0174 25.7729L33.556 27.9259ZM31.3856 27.6105C30.8951 27.5468 30.4147 27.4904 29.9387 27.4426L30.6621 25.184C31.2684 25.2375 31.8674 25.3026 32.4635 25.3793L31.3856 27.6105ZM29.2007 27.3746C28.6711 27.3298 28.1416 27.295 27.6091 27.2719L28.0186 25.019C28.6755 25.0422 29.3208 25.0769 29.943 25.1232L29.2007 27.3746ZM26.8712 27.2473C26.3184 27.2343 25.7541 27.2328 25.1638 27.2473L25.2665 24.9915C25.9553 24.9915 26.6208 24.9915 27.2691 25.0045L26.8712 27.2473ZM24.4374 27.2632C23.931 27.2806 23.4005 27.3076 22.8458 27.3442L22.7503 25.0436C23.3686 25.0205 23.9681 25.0036 24.5488 24.993L24.4374 27.2632ZM22.1223 27.3949C21.5436 27.4402 20.9315 27.4947 20.2862 27.5584L20.0127 25.1941C20.3918 25.1623 20.7767 25.1348 21.1703 25.1145C21.4597 25.0986 21.7389 25.0856 22.0167 25.074L22.1223 27.3949ZM19.5656 27.6365C18.956 27.706 18.368 27.7836 17.8018 27.8695L17.4083 25.5008C18.0058 25.4082 18.6367 25.3272 19.2893 25.2607L19.5656 27.6365ZM17.0885 27.9838C16.5343 28.0764 16.0076 28.1748 15.5041 28.2732L15.0049 25.9581C15.533 25.8365 16.0973 25.7222 16.6935 25.6166L17.0885 27.9838ZM14.7951 28.4265C14.2294 28.551 13.6998 28.6797 13.2035 28.8085L12.7101 26.5831C13.189 26.4385 13.7229 26.2807 14.3017 26.1346L14.7951 28.4265ZM12.5075 28.9966C11.9852 29.1413 11.5149 29.286 11.0968 29.422L11.0562 29.3974L10.6366 27.3283C10.955 27.1966 11.308 27.0592 11.6972 26.9203L12.0242 26.806L12.5075 28.9966ZM10.2112 28.8722C9.79259 28.6002 9.40336 28.3315 9.04356 28.0662C9.27652 27.9433 9.58182 27.7913 9.95802 27.6206L10.2112 28.8722ZM6.72558 30.6244L5.64038 32.4548C5.49569 32.3289 5.36402 32.2016 5.22946 32.0713L6.20903 30.2381C6.37976 30.3683 6.55195 30.4971 6.72558 30.6244ZM8.72813 31.9758C9.01752 32.1596 9.31703 32.3405 9.6151 32.5156L8.2 34.4183C7.93521 34.2461 7.67766 34.0667 7.42445 33.8858L8.72813 31.9758ZM10.2489 32.8773C10.6207 33.0856 10.9984 33.2868 11.3789 33.4807L9.89869 35.4239C9.52828 35.2242 9.1651 35.0202 8.8135 34.806L10.2489 32.8773ZM12.0373 33.8091C12.4289 34.002 12.8239 34.1848 13.2223 34.3575L11.7754 36.334C11.3567 36.1517 10.9482 35.9588 10.5498 35.7552L12.0373 33.8091ZM13.9052 34.6498C14.3345 34.8273 14.7686 34.9966 15.2075 35.1576L13.8372 37.1356C13.3704 36.9735 12.9136 36.8023 12.467 36.6219L13.9052 34.6498ZM15.9034 35.4094C16.3983 35.5801 16.8946 35.7388 17.3923 35.8854L16.1205 37.8388C15.5808 37.6941 15.0555 37.5407 14.5404 37.3743L15.9034 35.4094ZM18.1216 36.0924C18.6598 36.2371 19.1986 36.3663 19.7378 36.4801L18.6526 38.4219C18.0449 38.3033 17.4512 38.1721 16.8714 38.0283L18.1216 36.0924ZM20.4844 36.6306C21.0034 36.7271 21.5224 36.8115 22.0413 36.8838L21.1399 38.8343C20.5466 38.7533 19.9645 38.6621 19.3934 38.5608L20.4844 36.6306ZM22.7995 36.975C23.2929 37.0285 23.7863 37.0705 24.2768 37.0965L23.6619 39.1121C23.0628 39.06 22.474 39.0007 21.8952 38.9298L22.7995 36.975ZM25.0191 37.1269C25.6254 37.1457 26.2085 37.1573 26.7757 37.1645L26.427 39.2799C25.7368 39.2539 25.0611 39.2177 24.4013 39.17L25.0191 37.1269ZM27.5078 37.1703H27.8695C28.2554 37.1703 28.6335 37.1674 29.0039 37.1616L28.9866 39.3161C28.3644 39.3161 27.7538 39.3161 27.162 39.3031L27.5078 37.1703ZM29.7274 37.1501C30.2251 37.1385 30.7055 37.1211 31.1743 37.1009L31.552 39.2307C30.9312 39.2669 30.3163 39.2901 29.71 39.3045L29.7274 37.1501ZM31.8978 37.0632C32.3926 37.0343 32.8643 36.9996 33.3172 36.9605L34.1058 39.0267C33.4966 39.0918 32.886 39.1454 32.2783 39.1888L31.8978 37.0632ZM34.0682 36.8896C34.3962 36.8568 34.713 36.8206 35.0188 36.7811L36.2256 38.7475C35.7683 38.8189 35.3092 38.8825 34.8481 38.9385L34.0682 36.8896ZM35.8045 36.6726C36.146 36.6215 36.4725 36.567 36.7841 36.5091L38.4191 38.3481C37.9522 38.4446 37.4791 38.5357 36.9997 38.6216L35.8045 36.6726ZM37.6074 36.3441C37.8591 36.2877 38.1008 36.2313 38.3308 36.1719L40.3999 37.8547C40.0151 37.9647 39.6201 38.0674 39.2207 38.1644L37.6074 36.3441ZM39.1831 35.9317C39.3987 35.8637 39.6027 35.7957 39.7966 35.7263L42.2245 37.26C41.9052 37.3806 41.5773 37.4939 41.2406 37.6001L39.1831 35.9317ZM40.63 35.392C40.7472 35.34 40.8601 35.2864 40.9671 35.2314L43.7713 36.5988C43.5398 36.7116 43.2996 36.8202 43.0551 36.9258L40.63 35.392ZM41.7282 34.7974L41.8396 34.7221L45.0229 35.9028C44.8782 35.9969 44.7205 36.0895 44.5628 36.1792L41.7282 34.7974ZM44.4268 34.9102L45.9026 35.2647C45.8476 35.3081 45.7941 35.3544 45.7377 35.3964L44.4268 34.9102ZM45.3108 34.3792L46.6883 34.5687C46.6521 34.6078 46.6145 34.6454 46.5754 34.6845L45.3108 34.3792ZM45.7695 33.7122L47.3018 33.7758C47.2743 33.8207 47.2454 33.8655 47.2164 33.9104L45.7695 33.7122ZM43.7988 32.9062L47.6852 32.7876C47.669 32.8809 47.6473 32.9732 47.6201 33.0639L43.7988 32.9062ZM48.4101 32.0381C48.4095 32.0279 48.4095 32.0178 48.4101 32.0077L52.1244 31.6127C52.162 31.7183 52.1953 31.821 52.2228 31.9223L48.4101 32.0381ZM48.1728 31.3045C48.1151 31.186 48.0513 31.0706 47.9819 30.9587L51.3865 30.2699C51.5335 30.4794 51.6674 30.6978 51.7873 30.9239L48.1728 31.3045ZM52.1519 30.1137L55.8271 29.3699C56.034 29.7097 56.2126 30.0658 56.361 30.4349L52.5701 30.8371C52.442 30.5882 52.2985 30.3475 52.1403 30.1165L52.1519 30.1137ZM51.6657 29.477C51.5143 29.2908 51.3527 29.1071 51.181 28.9257L54.7144 27.9129C54.9502 28.1692 55.1724 28.4377 55.38 28.7174L51.6657 29.477ZM50.5878 28.3426C50.3085 28.0851 50.009 27.8347 49.6994 27.5902L52.9405 26.3314C53.3558 26.6432 53.7538 26.9775 54.1327 27.3327L50.5878 28.3426ZM49.0135 27.0794C48.6585 26.8277 48.2905 26.5865 47.9095 26.356L50.7513 24.9235C51.2548 25.2129 51.754 25.5023 52.2344 25.8351L49.0135 27.0794ZM47.1716 25.9103C46.7303 25.66 46.2774 25.4198 45.8187 25.1869L48.141 23.6386C48.7372 23.8919 49.355 24.1769 49.9714 24.4938L47.1716 25.9103ZM45.0591 24.8295C44.5454 24.5922 44.0274 24.3722 43.5137 24.1697L45.402 22.6157C45.9808 22.8038 46.6319 23.0353 47.3351 23.3131L45.0591 24.8295ZM44.3515 25.3012L41.8917 26.9449C41.4924 26.7886 41.0901 26.6396 40.6893 26.4992L42.8728 24.7021C43.369 24.8845 43.8639 25.0856 44.3515 25.3012ZM39.8747 26.2272C39.4016 26.0825 38.9357 25.9378 38.4813 25.8119L40.2509 23.86C40.8543 24.0163 41.4663 24.2001 42.0813 24.4113L39.8747 26.2272ZM37.6913 25.6065C37.4019 25.5361 37.1246 25.4714 36.8593 25.4126C36.6481 25.3663 36.4368 25.3229 36.227 25.2795L37.6074 23.2552C38.244 23.3864 38.859 23.5234 39.4522 23.6661L37.6913 25.6065ZM35.4558 25.1261C34.8177 25.0045 34.1854 24.896 33.5545 24.802L34.5674 22.7213C35.3545 22.8342 36.1093 22.9605 36.8318 23.1004L35.4558 25.1261ZM30.1557 24.4128C29.4944 24.3621 28.8216 24.323 28.13 24.297L28.5047 22.2424C29.3121 22.2578 30.0887 22.2901 30.8343 22.3393L30.1557 24.4128ZM27.3993 24.2681C26.7221 24.2681 26.0319 24.255 25.3085 24.2681L25.4098 22.2742C26.2273 22.2453 27.0144 22.2322 27.7755 22.2366L27.3993 24.2681ZM24.585 24.2681C23.9831 24.2796 23.3614 24.2975 22.7199 24.3216L22.6432 22.4319C23.3436 22.374 24.0246 22.3297 24.6863 22.2988L24.585 24.2681ZM21.9979 24.3505L21.1428 24.391C20.7304 24.4128 20.331 24.4417 19.9375 24.475L19.7393 22.7314C20.4859 22.635 21.2132 22.5559 21.9212 22.4941L21.9979 24.3505ZM19.2169 24.5415C18.5441 24.6095 17.9002 24.6862 17.2896 24.7875L17.0075 23.125C17.3837 23.0599 17.77 22.9977 18.165 22.9398L19.0114 22.8226L19.2169 24.5415ZM16.5763 24.9062C15.9671 25.0132 15.3927 25.1304 14.8544 25.2534L14.5101 23.6488C15.0744 23.5099 15.6715 23.3792 16.3014 23.2567L16.5763 24.9062ZM14.1454 25.4256C13.5667 25.5732 13.0361 25.7227 12.5538 25.8742L12.2094 24.3115C12.7086 24.1451 13.2382 23.9845 13.8011 23.8311L14.1454 25.4256ZM11.8622 26.0984C11.7175 26.1462 11.58 26.1939 11.4484 26.2431C11.0996 26.369 10.7799 26.492 10.4861 26.6106L10.178 25.0943C10.5947 24.9119 11.0427 24.733 11.5221 24.5574L11.8622 26.0984ZM9.80609 26.8971C9.29677 27.1228 8.89887 27.3211 8.61527 27.4759L8.4344 25.9537C8.76141 25.7695 9.11735 25.5848 9.50224 25.3996L9.80609 26.8971ZM7.84695 27.133C7.65017 26.9695 7.46496 26.8103 7.29567 26.6584C7.44036 26.56 7.59374 26.4602 7.75435 26.3589L7.84695 27.133ZM6.94407 27.3196L5.97173 29.1399C5.83717 29.0313 5.7026 28.9214 5.56948 28.81L6.50999 26.929C6.64504 27.0534 6.78973 27.1836 6.94407 27.3196ZM5.63026 29.7881L4.69554 31.5403C4.58702 31.4289 4.48139 31.3146 4.37577 31.2017L5.24393 29.4741C5.36691 29.5797 5.49569 29.6854 5.63026 29.7881ZM4.87641 32.7326C5.00518 32.8527 5.13396 32.9713 5.26563 33.0885L4.315 34.6932C4.21227 34.5847 4.10809 34.4761 4.00535 34.3647L4.87641 32.7326ZM4.45969 35.8681C4.60438 36.0128 4.74908 36.1575 4.90679 36.2877L3.74925 37.982C3.63928 37.8634 3.52932 37.7419 3.4208 37.6174L4.45969 35.8681ZM5.45373 36.771C5.65775 36.9446 5.86321 37.1139 6.07302 37.2788L4.78091 39.0152C4.60583 38.8545 4.43365 38.6867 4.26291 38.516L5.45373 36.771ZM5.86466 36.169L7.01497 34.4834C7.26239 34.6599 7.51126 34.8321 7.76737 34.9999L6.50565 36.6972C6.28861 36.5264 6.07495 36.3504 5.86466 36.169ZM8.37942 35.3892C8.72813 35.6019 9.08697 35.8073 9.45304 36.0055L8.07557 37.8157C7.73554 37.6001 7.40708 37.37 7.08152 37.1341L8.37942 35.3892ZM10.1027 36.347C10.5035 36.5496 10.9159 36.7449 11.3355 36.9258L9.92329 38.8545C9.50368 38.6462 9.09372 38.4253 8.6934 38.1919L10.1027 36.347ZM12.0184 37.2224C12.4699 37.4076 12.931 37.5841 13.4017 37.752L12.0083 39.7618C11.526 39.5795 11.0529 39.3841 10.5889 39.1758L12.0184 37.2224ZM14.1136 37.9951C14.6326 38.1658 15.1631 38.3259 15.7052 38.4755L14.374 40.5185C14.158 40.4606 13.9453 40.4013 13.7359 40.3405C13.3872 40.2378 13.0472 40.1278 12.7115 40.0135L14.1136 37.9951ZM16.4446 38.6693C17.0398 38.8198 17.6484 38.9578 18.2706 39.0832L17.1131 41.1204C16.4157 40.9974 15.7501 40.86 15.112 40.7066L16.4446 38.6693ZM19.0201 39.2279C19.6085 39.3349 20.2105 39.4314 20.8259 39.5172L19.9042 41.5082C19.201 41.432 18.5258 41.3437 17.8785 41.2434L19.0201 39.2279ZM19.5844 42.2027L18.6063 44.3196C17.8235 44.2444 17.0552 44.1518 16.3014 44.0302L17.4951 41.9206C18.1645 42.0277 18.8615 42.1241 19.5859 42.21L19.5844 42.2027ZM20.3441 42.2838C21.0762 42.3561 21.8407 42.4164 22.6375 42.4646L22.0023 44.5482C21.11 44.5106 20.2331 44.4575 19.3717 44.389L20.3441 42.2838ZM20.6667 41.5878L21.5769 39.62C22.1875 39.6962 22.8106 39.7623 23.4463 39.8182L22.8545 41.7542C22.0949 41.7093 21.367 41.6544 20.6682 41.5878H20.6667ZM24.1842 39.879C24.8807 39.9311 25.5902 39.9711 26.3127 39.9991L26.003 41.8801C25.1667 41.8627 24.368 41.8367 23.5997 41.799L24.1842 39.879ZM27.0419 40.0237C27.6207 40.0396 28.1792 40.0483 28.729 40.0483H28.9779L28.9591 41.8974H28.389C27.8228 41.8974 27.271 41.8936 26.7337 41.8859L27.0419 40.0237ZM29.7014 40.0396C30.3814 40.028 31.0398 40.0049 31.6822 39.9701L32.0034 41.7759C31.2317 41.827 30.46 41.8622 29.6883 41.8815L29.7014 40.0396ZM32.8542 42.44C33.678 42.3715 34.4955 42.2862 35.3068 42.1839L36.0939 44.2516C35.1389 44.376 34.1825 44.4725 33.2246 44.541L32.8542 42.44ZM32.7269 41.7166L32.4086 39.9195C33.0886 39.8746 33.747 39.8153 34.3822 39.7459L35.0434 41.4822C34.2794 41.5835 33.5053 41.6616 32.7283 41.7238L32.7269 41.7166ZM35.123 39.659C35.6487 39.5925 36.158 39.5182 36.651 39.4362L37.6638 41.0915C37.0426 41.2005 36.4156 41.297 35.7828 41.3809L35.123 39.659ZM37.4193 39.3161C37.9595 39.2197 38.4794 39.1102 38.9791 38.9877L40.371 40.5547C39.7353 40.7042 39.0886 40.8412 38.4307 40.9656L37.4193 39.3161ZM39.7778 38.7836C40.2336 38.6636 40.6705 38.5391 41.0872 38.4074L42.8945 39.8717C42.3345 40.041 41.7586 40.2016 41.1712 40.3507L39.7778 38.7836ZM41.9004 38.1354C42.2737 38.0038 42.6239 37.8677 42.9668 37.7288L45.1314 39.1049L45.0938 39.1193C44.6452 39.2901 44.1832 39.4536 43.7076 39.6098L41.9004 38.1354ZM45.3644 39.795C45.5467 39.7256 45.7261 39.6504 45.9026 39.5838L48.1294 40.9917C47.5434 41.2478 46.9415 41.4923 46.328 41.7253L44.3848 40.1495C44.7128 40.0357 45.0369 39.9176 45.3571 39.795H45.3644ZM46.7172 39.2423C47.1513 39.0499 47.5738 38.8502 47.9717 38.6476L50.4561 39.8587C49.967 40.124 49.4539 40.382 48.9166 40.6328L46.7172 39.2423ZM45.9735 38.7735L43.767 37.3787C44.0433 37.2499 44.3081 37.1182 44.5584 36.9851L47.1484 38.2468C46.7684 38.4263 46.3743 38.6018 45.9663 38.7735H45.9735ZM45.3195 36.551C45.5033 36.4382 45.6783 36.3239 45.8447 36.2096L48.8486 37.3251C48.5664 37.4988 48.2698 37.6681 47.9558 37.8359L45.3195 36.551ZM46.5335 35.6945C46.6203 35.6221 46.7028 35.5498 46.7838 35.4789L50.2695 36.3195C50.0592 36.4912 49.8349 36.662 49.5966 36.8317L46.5335 35.6945ZM47.3785 34.8784C47.4349 34.8147 47.4885 34.7511 47.5405 34.6859L51.385 35.2141C51.238 35.3945 51.0821 35.5674 50.9177 35.7321L47.3785 34.8784ZM47.992 34.0102C48.031 33.9408 48.0658 33.8655 48.1005 33.8019L52.1259 33.9683C52.0488 34.168 51.9564 34.3615 51.8495 34.547L47.992 34.0102ZM52.8855 33.9987L56.5867 34.152C56.4616 34.4915 56.3032 34.8177 56.1136 35.1258L52.6193 34.6469C52.7217 34.4401 52.8083 34.2258 52.8783 34.0059L52.8855 33.9987ZM52.9535 31.8948C52.9246 31.7733 52.8898 31.6517 52.8508 31.5302L56.5969 31.1323C56.6547 31.3435 56.703 31.5591 56.7416 31.7791L52.9535 31.8948ZM57.3232 31.0556L61.1446 30.649C61.2592 30.971 61.3506 31.3008 61.418 31.6358L57.4679 31.7559C57.4295 31.5243 57.3788 31.2949 57.316 31.0686L57.3232 31.0556ZM57.1018 30.3509C56.9552 29.9579 56.7767 29.5775 56.5679 29.2137L60.0521 28.5076C60.3596 28.968 60.6305 29.4517 60.8624 29.9545L57.1018 30.3509ZM56.1556 28.5597C55.9486 28.2576 55.7244 27.9678 55.4842 27.6915L58.6877 26.7785C59.0166 27.1373 59.3185 27.4976 59.5935 27.8593L56.1556 28.5597ZM53.036 25.5168C52.5455 25.1652 52.0347 24.8353 51.5167 24.5314L54.2181 23.1684C54.8345 23.5591 55.4234 23.9599 55.9776 24.3751L53.036 25.5168ZM50.7571 24.1031C50.119 23.7587 49.478 23.4477 48.8529 23.1698L51.2982 21.5406C52.0641 21.9178 52.7948 22.3128 53.4903 22.7256L50.7571 24.1031ZM48.06 22.8298C47.3452 22.5404 46.6666 22.2829 46.0603 22.0745L48.3146 20.2167C49.0863 20.5186 49.8291 20.8369 50.5429 21.1716L48.06 22.8298ZM45.2472 21.8083C44.871 21.6896 44.5382 21.5898 44.2604 21.5117C43.7684 21.3728 43.2682 21.2343 42.7599 21.0964L44.6973 18.9665C45.6774 19.2627 46.6256 19.5815 47.542 19.9229L45.2472 21.8083ZM44.0636 22.2091C44.2184 22.2525 44.3906 22.3017 44.5772 22.3538L42.7324 23.873C42.0697 23.6329 41.42 23.4259 40.7979 23.2538L42.2144 21.694C42.8424 21.8666 43.4588 22.0379 44.0636 22.2076V22.2091ZM40.0122 23.0541C39.3842 22.9007 38.7331 22.7502 38.0559 22.607L39.1889 20.9401C39.9509 21.1176 40.6966 21.3023 41.4258 21.4943L40.0122 23.0541ZM37.2862 22.4493C36.5294 22.3046 35.7408 22.1599 34.9132 22.0398L35.8016 20.2268C36.7026 20.3917 37.5809 20.5702 38.4365 20.7622L37.2862 22.4493ZM36.1286 19.5554L37.2543 17.2577C38.2797 17.4255 39.3321 17.6276 40.4115 17.864L38.8691 20.1168C37.9792 19.9157 37.0662 19.7247 36.1257 19.5496L36.1286 19.5554ZM35.3892 19.4223C34.511 19.2776 33.6095 19.1329 32.6849 19.0157L33.4214 16.7585C34.4183 16.8554 35.4471 16.9813 36.5063 17.1405L35.3892 19.4223ZM31.9513 18.9274C31.0446 18.8233 30.1128 18.7403 29.1559 18.6786L29.5509 16.5082C30.5531 16.5381 31.5968 16.5984 32.682 16.689L31.9513 18.9274ZM31.7227 19.6307L31.0673 21.6231C30.2888 21.571 29.4785 21.5358 28.6364 21.5174L29.0227 19.3919C29.9449 19.4488 30.8439 19.5265 31.7198 19.6249L31.7227 19.6307ZM27.9057 21.5117C27.1157 21.5059 26.2958 21.5179 25.4459 21.5478L25.5602 19.2921C26.495 19.2921 27.4075 19.3133 28.2978 19.3557L27.9057 21.5117ZM24.7225 21.5782C24.0381 21.6115 23.3363 21.6549 22.6129 21.7142L22.5159 19.3803C23.3059 19.3355 24.08 19.3094 24.8397 19.2979L24.7225 21.5782ZM22.4812 18.6511L22.4002 16.6948C23.2061 16.6297 24.0656 16.5733 24.9742 16.5342L24.8744 18.5672C24.0902 18.5787 23.2924 18.6067 22.4812 18.6511ZM21.7577 18.6988C21.0256 18.7495 20.2819 18.8131 19.5237 18.8956L19.3008 18.9202L19.0867 17.0334C19.8651 16.9394 20.7318 16.8439 21.6767 16.7571L21.7577 18.6988ZM19.6018 19.6147C20.3441 19.5337 21.0704 19.47 21.7867 19.4208L21.8836 21.7707C21.1601 21.8372 20.4159 21.9178 19.651 22.0123L19.3833 19.6379C19.4571 19.6379 19.528 19.622 19.6032 19.6147H19.6018ZM18.942 22.0977C18.6526 22.1367 18.3632 22.1758 18.0738 22.2192C17.6687 22.2771 17.278 22.3393 16.896 22.4059L16.5083 20.0792C17.1912 19.9446 17.9118 19.8245 18.6787 19.7233L18.942 22.0977ZM16.1842 22.5317C15.5446 22.6552 14.9364 22.7879 14.3596 22.9297L13.8777 20.7274C14.4782 20.5509 15.1149 20.3845 15.7935 20.234L16.1842 22.5317ZM13.7244 19.9967L13.3091 18.0709C13.9732 17.8799 14.6576 17.7106 15.3522 17.5688L15.6748 19.5033C14.9832 19.6654 14.3321 19.8318 13.7215 20.0083L13.7244 19.9967ZM13.0255 20.2167C12.4598 20.3975 11.9273 20.5871 11.4339 20.781L11.0114 18.871C11.5221 18.6641 12.059 18.4688 12.616 18.2922L13.0255 20.2167ZM13.1818 20.9401L13.6506 23.1221C13.0863 23.2735 12.5557 23.4332 12.059 23.601L11.5916 21.5189C12.0864 21.3178 12.6146 21.1239 13.1818 20.9401ZM11.3644 23.834C10.8898 24.0057 10.4452 24.1812 10.0304 24.3607L9.63391 22.4059C10.0275 22.2018 10.4529 21.9964 10.913 21.7938L11.3644 23.834ZM9.35465 24.6689C8.99292 24.8396 8.6553 25.0099 8.3418 25.1796L8.11753 23.2986C8.37797 23.1279 8.66157 22.9542 8.96832 22.7777L9.35465 24.6689ZM8.02058 22.4768L7.80065 20.6609C8.00611 20.4959 8.2217 20.3411 8.44164 20.1935L8.8135 22.0094C8.53135 22.1657 8.26801 22.3219 8.02058 22.4768ZM7.34487 22.9224C7.17123 23.0425 7.00918 23.1612 6.85725 23.2755L6.76609 21.6838C6.88534 21.5327 7.01236 21.3878 7.14664 21.2498L7.34487 22.9224ZM7.44615 23.7645L7.65596 25.5703C7.42445 25.7092 7.20837 25.8457 7.00773 25.9798L6.905 24.1812C7.07718 24.0467 7.24937 23.9078 7.44615 23.7645ZM6.2698 25.673C6.07736 25.4734 5.92688 25.3084 5.8227 25.1883C5.9153 25.0841 6.04842 24.9467 6.21916 24.7832L6.2698 25.673ZM5.9645 26.3965L5.11804 28.088C5.28589 27.3442 5.43781 26.6323 5.56659 25.9812C5.67945 26.11 5.81257 26.2489 5.9645 26.4023V26.3965ZM3.24427 35.7871L3.64652 35.0332C3.74057 35.1345 3.83606 35.2358 3.9359 35.3342L2.93318 37.0256C2.8782 36.9576 2.82466 36.8809 2.76968 36.8173C2.82032 36.6726 2.87096 36.5178 2.92305 36.3557L3.24427 35.7871ZM2.03898 39.9455L3.03447 38.2671C3.13286 38.3756 3.23125 38.4841 3.32385 38.5898L2.14316 40.329C2.10044 40.2054 2.06564 40.0793 2.03898 39.9513V39.9455ZM3.84619 39.1193C4.01114 39.2814 4.17754 39.4396 4.34538 39.5939L2.88109 41.5646C2.74527 41.4111 2.62052 41.2482 2.50778 41.077L3.84619 39.1193ZM4.88943 40.0743C5.18942 40.3261 5.49328 40.5672 5.80099 40.7978L4.31066 42.754C3.99252 42.5498 3.68978 42.3225 3.40488 42.074L4.88943 40.0743ZM5.32351 39.4883L6.64311 37.7158C6.96577 37.9502 7.29278 38.1788 7.62846 38.3944L6.23797 40.219C5.93266 39.9904 5.63026 39.7502 5.3264 39.4941L5.32351 39.4883ZM8.25064 38.7648C8.65289 39.0041 9.06526 39.2293 9.48777 39.4406L8.06399 41.3852C7.64438 41.1508 7.23393 40.8981 6.83265 40.627L8.25064 38.7648ZM12.2861 40.6314C12.6927 40.7761 13.108 40.9092 13.5334 41.0336C13.6781 41.0756 13.8228 41.1161 13.9675 41.1552L12.603 43.2489C12.0127 43.081 11.4353 42.8944 10.8667 42.6846L12.2861 40.6314ZM14.6982 41.3548C15.3507 41.5169 16.0293 41.663 16.7398 41.7889L15.5388 43.9145C14.7864 43.7828 14.0514 43.6251 13.3308 43.4471L14.6982 41.3548ZM15.1583 44.5916L14.2641 46.1746C13.4871 46.0125 12.6999 45.8374 11.9041 45.6421L12.9112 44.091C13.6443 44.2839 14.3943 44.4489 15.1612 44.5858L15.1583 44.5916ZM15.9165 44.7204C16.6882 44.8429 17.4767 44.9442 18.2822 45.0242L17.4763 46.7606C16.6679 46.6303 15.848 46.4856 15.0165 46.3265L15.9165 44.7204ZM19.0462 45.0951C19.9418 45.1733 20.8534 45.2283 21.7823 45.2688L21.1746 47.2598C20.2153 47.157 19.2285 47.0311 18.22 46.8807L19.0462 45.0951ZM22.5289 45.2992C23.4796 45.3324 24.4461 45.3513 25.4228 45.3628L25.0654 47.5636C24.0526 47.5115 23.0006 47.4363 21.9111 47.3321L22.5289 45.2992ZM22.7489 44.5757L23.3797 42.5066C24.1784 42.5471 25.0128 42.577 25.8829 42.5963L25.5458 44.635C24.6024 44.6249 23.6691 44.6075 22.7518 44.5757H22.7489ZM26.6107 42.6093C27.1895 42.618 27.7808 42.6223 28.3847 42.6223H28.9461L28.9258 44.648C28.0316 44.648 27.1475 44.648 26.275 44.648L26.6107 42.6093ZM29.6493 45.3715H30.1282C30.9568 45.3715 31.7902 45.3479 32.6285 45.3006L33.0192 47.5101C31.9875 47.5781 30.8488 47.6287 29.6247 47.6461L29.6493 45.3715ZM33.3534 45.2485C34.3547 45.1776 35.3588 45.0749 36.3587 44.9403L37.1733 47.0934C36.1445 47.238 35.0029 47.3596 33.7412 47.4565L33.3534 45.2485ZM37.0937 44.8361C37.9619 44.7059 38.83 44.5468 39.6823 44.376L40.9498 46.4408C40.1482 46.6101 39.1267 46.8025 37.9112 46.9834L37.0937 44.8361ZM36.8304 44.1445L36.0447 42.0797C36.7305 41.9833 37.4058 41.8748 38.0704 41.7542L39.2757 43.7206C38.4683 43.8865 37.6532 44.0297 36.8304 44.1503V44.1445ZM38.8344 41.6109C39.5414 41.472 40.235 41.3196 40.9151 41.1537L42.5168 42.9551C41.7007 43.1799 40.8726 43.3825 40.0324 43.5629L38.8344 41.6109ZM41.7036 40.9526C42.3388 40.7847 42.9596 40.6053 43.5615 40.4129L45.5293 42.0045C44.7981 42.263 44.0515 42.5042 43.2895 42.728L41.7036 40.9526ZM46.1891 42.5442L48.3971 44.3341C47.5029 44.6524 46.5451 44.9649 45.5351 45.2615L43.8219 43.3328C44.6235 43.094 45.4208 42.8307 46.1862 42.5486L46.1891 42.5442ZM46.9719 42.2461C47.6158 41.9944 48.2466 41.7296 48.8529 41.4503L51.4979 43.123C50.799 43.4268 50.0264 43.7394 49.1828 44.0505L46.9719 42.2461ZM49.6342 41.0886C50.1995 40.8137 50.7373 40.533 51.2476 40.2465L54.3122 41.7397C53.7783 42.045 53.0967 42.3952 52.2865 42.767L49.6342 41.0886ZM51.9985 39.8066C52.45 39.5317 52.8763 39.2529 53.2776 38.9703L56.6273 40.2132C56.1136 40.5995 55.584 40.9613 55.0515 41.2955L51.9985 39.8066ZM51.2186 39.4261L48.7487 38.2251C49.0835 38.0322 49.3998 37.8393 49.6979 37.6464L52.4471 38.6592C52.0574 38.9206 51.6469 39.1767 51.2157 39.4275L51.2186 39.4261ZM50.4098 37.1327C50.6703 36.935 50.9114 36.7333 51.1333 36.5279L54.2471 37.2788C53.9143 37.5682 53.554 37.8663 53.1619 38.1557L50.4098 37.1327ZM51.7308 35.9274C51.9016 35.7367 52.061 35.5362 52.2083 35.3269L55.6477 35.7986C55.4077 36.1096 55.1487 36.4053 54.8721 36.6842L51.7308 35.9274ZM56.471 35.9115L60.3169 36.4411C60.0137 36.9018 59.6787 37.3409 59.3142 37.7549L55.6969 36.8867C55.975 36.5794 56.2326 36.2541 56.4681 35.9129L56.471 35.9115ZM56.8863 35.2387C57.0712 34.9043 57.2224 34.5525 57.3377 34.1882L61.3052 34.3532C61.16 34.8434 60.963 35.3168 60.7177 35.7654L56.8863 35.2387ZM43.9218 18.7437L41.9742 20.8837C41.2088 20.6826 40.4274 20.4829 39.6244 20.2933L41.1683 18.0289C41.8136 18.1736 42.4705 18.3414 43.1289 18.5194C43.3951 18.5903 43.657 18.6641 43.9189 18.7393L43.9218 18.7437ZM28.8158 16.4865L28.4266 18.625C27.5054 18.5826 26.5625 18.5619 25.5979 18.5628L25.702 16.5067C26.6845 16.4749 27.7249 16.4648 28.8158 16.4865ZM17.5095 17.2259L18.0738 17.1579L18.3632 17.1217L18.5774 19.0027C17.8047 19.1054 17.0711 19.227 16.3751 19.363L16.0539 17.4371C16.543 17.3575 17.0277 17.2852 17.5095 17.2259ZM10.3313 19.1633L10.7509 21.0617C10.2966 21.2546 9.87313 21.4519 9.48053 21.6535L9.10288 19.7898C9.41687 19.609 9.7323 19.4454 10.0347 19.3008L10.3313 19.1633ZM6.10919 22.866L6.16417 23.834C6.06868 23.9179 5.98041 23.9975 5.89794 24.0727C5.92543 23.8846 5.94569 23.711 5.9616 23.5547C5.98501 23.3204 6.03452 23.0894 6.10919 22.866ZM4.93573 43.1302L6.39134 41.2203C6.79648 41.4952 7.20934 41.7523 7.62991 41.9915L6.31031 43.7929L6.17864 43.7365C5.75435 43.5555 5.33952 43.3532 4.93573 43.1302ZM9.31703 44.9172L10.4341 43.3067C11.0041 43.5238 11.5863 43.7167 12.1805 43.8855L11.1677 45.4439C10.8088 45.3527 10.4442 45.2587 10.0882 45.1545C9.81718 45.0783 9.56011 44.9992 9.31703 44.9172ZM25.7932 47.594L26.1622 45.3643C27.0708 45.3701 27.9916 45.3701 28.9244 45.3643L28.8998 47.6446C27.913 47.6562 26.8798 47.6388 25.7932 47.594ZM43.0117 45.9416H42.9914C42.9798 45.9416 42.5255 46.0863 41.6892 46.2758L40.426 44.2169C41.3106 44.0239 42.183 43.8035 43.0435 43.5556L44.7538 45.4815C44.1914 45.6435 43.6131 45.7969 43.0189 45.9416H43.0117ZM57.2856 39.6909L53.9577 38.4566C54.3504 38.1521 54.7275 37.8281 55.0877 37.4858L58.7369 38.3655C58.2801 38.8333 57.798 39.2757 57.2928 39.6909H57.2856Z" fill="#E9983D"/>
</svg>
